<?xml version="1.0" standalone="no"?>
<!DOCTYPE svg PUBLIC "-//W3C//DTD SVG 1.1//EN" "http://www.w3.org/Graphics/SVG/1.1/DTD/svg11.dtd" >
<svg xmlns="http://www.w3.org/2000/svg">
<metadata></metadata>
<defs>
<font id="gg_display_monoregular" horiz-adv-x="1392" >
<font-face units-per-em="2048" ascent="1638" descent="-410" />
<missing-glyph horiz-adv-x="500" />
<glyph horiz-adv-x="0" />
<glyph horiz-adv-x="682" />
<glyph unicode=" " />
<glyph unicode="!" d="M547 1135v299h297v-299l-29 -746h-240zM561 0v268h268v-268h-268z" />
<glyph unicode="&#x22;" d="M248 1075v359h358v-359q0 -75 -52.5 -127.5t-127.5 -52.5v180h-178zM786 1075v359h359v-359q0 -75 -52 -127.5t-126 -52.5v180h-181z" />
<glyph unicode="#" d="M156 262l43 238h120l78 438h-131l43 240h129l47 258h242l-45 -258h102l-43 -240h-102l-78 -438l-41 -238l-47 -262l-242 2l45 260h-120zM590 262l43 238h102l78 438l41 240l45 258h244l-45 -258h139l-43 -240h-139l-78 -438h151l-41 -238h-151l-47 -262l-242 2l45 260 h-102z" />
<glyph unicode="$" d="M188 346v141h299q0 -51 34.5 -85.5t84.5 -34.5h162q51 0 86 34.5t35 85.5v15q0 32 -24 56t-56 24h-72v299h121q136 0 233 -96.5t97 -233.5v-223l-201 -199h-158v-158h-239v158h-182zM217 909v205l219 219h154v131h239v-131h119l219 -219v-139h-299q0 50 -34.5 84.5 t-83.5 34.5h-115q-50 0 -85.5 -35t-35.5 -84v-14q0 -33 23.5 -56.5t56.5 -23.5h74v-299h-123q-135 0 -231.5 96t-96.5 231z" />
<glyph unicode="%" d="M207 1194q0 100 70.5 170t168.5 70q99 0 169.5 -70.5t70.5 -169.5q0 -98 -71 -168t-169 -70t-168.5 70t-70.5 168zM213 0l698 1434h267l-699 -1434h-266zM367 1194q0 -33 23 -56.5t56 -23.5q32 0 56 24t24 56q0 33 -23.5 56.5t-56.5 23.5q-34 0 -56.5 -23t-22.5 -57z M705 240q0 98 70.5 167.5t168.5 69.5q99 0 169.5 -69.5t70.5 -167.5q0 -99 -70.5 -169.5t-169.5 -70.5q-98 0 -168.5 70t-70.5 170zM864 240q0 -33 23.5 -56.5t56.5 -23.5q34 0 57 23t23 57q0 32 -23 55.5t-57 23.5q-32 0 -56 -23.5t-24 -55.5z" />
<glyph unicode="&#x26;" d="M195 240v297q0 157 108 262q-61 92 -61 207v77q0 153 107 260t261 107h138q154 0 261 -107t107 -260v-61h-268v39q0 63 -44.5 107t-107.5 44h-34q-63 0 -107.5 -44t-44.5 -107v-35q0 -31 14 -64.5t37 -56.5q22 -22 51 -31h11v-239q-55 -6 -92 -48.5t-37 -99.5v-79 q0 -62 43 -106t106 -44h139q50 0 84.5 35t34.5 86v258h-188v240h528v-240h-205l133 -135v-262l-247 -250h-480z" />
<glyph unicode="'" d="M516 1075v359h361v-359q0 -75 -53.5 -127.5t-127.5 -52.5v180h-180z" />
<glyph unicode="(" d="M428 408v618q0 172 123 295t295 123h121v-240h-41q-82 0 -140.5 -57.5t-58.5 -140.5v-578q0 -83 58.5 -141t140.5 -58h41v-239h-121q-172 0 -295 122.5t-123 295.5z" />
<glyph unicode=")" d="M426 -10v239h41q82 0 140.5 58t58.5 141v578q0 83 -58.5 140.5t-140.5 57.5h-41v240h121q172 0 295 -123t123 -295v-618q0 -173 -123 -295.5t-295 -122.5h-121z" />
<glyph unicode="*" d="M344 993q3 7 8.5 20.5t9.5 22.5l213 66l-213 65q-4 9 -9.5 22.5t-8.5 20.5l82 142q8 1 22 3t25 3l162 -152l-51 217l30 37h164q14 -19 29 -37l-51 -217l164 152l45 -6l82 -142q-3 -10 -9 -23.5t-8 -19.5l-215 -65l215 -66q2 -6 8 -19.5t9 -23.5l-82 -141l-45 -6l-164 151 l51 -217q-15 -18 -29 -37h-164l-30 37l51 217l-162 -151q-11 1 -25 3t-22 3z" />
<glyph unicode="+" d="M168 569v269h393v393h270v-393h394v-269h-394v-393h-270v393h-393z" />
<glyph unicode="," d="M516 0v358h358v-358q0 -75 -52 -127.5t-126 -52.5v180h-180z" />
<glyph unicode="-" d="M279 553v299h835v-299h-835z" />
<glyph unicode="." d="M516 0v358h358v-358h-358z" />
<glyph unicode="/" d="M213 0l651 1434h316l-650 -1434h-317z" />
<glyph unicode="0" d="M213 387v678q0 164 116.5 280.5t282.5 116.5h39v-268h-18q-51 0 -86 -34.5t-35 -84.5v-284l369 98v186q0 49 -34.5 84t-84.5 35h-21v268h41q164 0 281 -116.5t117 -280.5v-678q0 -164 -117 -280.5t-281 -116.5h-41v268h21q50 0 84.5 35t34.5 86v264l-369 -100v-164 q0 -51 35 -86t86 -35h18v-268h-39q-166 0 -282.5 116.5t-116.5 280.5z" />
<glyph unicode="1" d="M219 0v268h955v-268h-955zM309 1016v239h166q81 0 136 52.5t55 126.5h211v-1076h-299v658h-269z" />
<glyph unicode="2" d="M211 0v268l575 578q11 9 23.5 22.5t29.5 47.5t17 69v35q0 56 -35 98t-88 53v273h8q172 0 295 -123t123 -295v-41q0 -101 -43 -192t-117 -160l-364 -365h547v-268h-971zM221 985v41q0 172 123 295t295 123h4v-273q-53 -11 -88 -53t-35 -98v-35h-299z" />
<glyph unicode="3" d="M213 379v49h268v-49q0 -51 35 -86t86 -35h158q51 0 86 35t35 86v121q0 50 -35 85.5t-86 35.5h-254v237h254q51 0 86 35t35 86v78q0 51 -35 86t-86 35h-150q-50 0 -84 -35t-34 -86v-29h-269v39q0 157 111 268t268 111h199q157 0 268 -111t111 -268v-168l-160 -160 l160 -159v-222q0 -152 -108.5 -260t-260.5 -108h-209q-161 0 -275 114t-114 275z" />
<glyph unicode="4" d="M188 240l64 237h532v389h299v-389h119v-237h-119v-240h-299v240h-596zM276 567l232 867h289l-234 -867h-287z" />
<glyph unicode="5" d="M211 244v188h299v-49q0 -51 34.5 -86t84.5 -35h141q50 0 84.5 35t34.5 86v117q0 49 -34.5 83.5t-84.5 34.5h-508v271h268v-2h299q148 0 253.5 -105t105.5 -254v-284l-250 -250h-477zM262 977v475h268l60 -59h551v-258h-611v-158h-268z" />
<glyph unicode="6" d="M193 358v56h299v-35q0 -50 34.5 -85.5t83.5 -35.5h172q49 0 84 35.5t35 85.5v35h299v-56q0 -152 -108.5 -260t-260.5 -108h-270q-152 0 -260 108t-108 260zM193 502v563q0 152 108 260.5t260 108.5h270q152 0 260.5 -108.5t108.5 -260.5v-35h-299v14q0 50 -35 85.5 t-84 35.5h-172q-49 0 -83.5 -35.5t-34.5 -85.5v-198l77 80h262q152 0 260.5 -108.5t108.5 -260.5v-55h-299v35q0 50 -35 85t-84 35h-172q-49 0 -83.5 -35t-34.5 -85v-35h-299z" />
<glyph unicode="7" d="M209 1165v269h965v-191l-37 -78h-928zM457 0v412l90 190l219 473h330l-340 -729v-346h-299z" />
<glyph unicode="8" d="M209 358v150q0 159 121 270q-74 96 -74 219v86q0 152 108.5 259.5t260.5 107.5h37v-268h-17q-49 0 -84 -35t-35 -84v-45q0 -50 35 -84.5t84 -34.5h103q49 0 83.5 34.5t34.5 84.5v45q0 50 -34.5 84.5t-83.5 34.5h-17v268h37q152 0 260.5 -107.5t108.5 -259.5v-86 q0 -123 -74 -219q121 -111 121 -270v-150q0 -152 -108.5 -260t-260.5 -108h-84v268h4q61 0 105.5 44t44.5 106v49q0 63 -44 106t-106 43h-78q-62 0 -105.5 -43t-43.5 -106v-49q0 -62 44 -106t105 -44h5v-268h-84q-152 0 -260.5 108t-108.5 260z" />
<glyph unicode="9" d="M201 219v189h299v-19q0 -51 34 -86t84 -35h170q49 0 84 35.5t35 85.5v199l-78 -80h-260q-152 0 -260 108.5t-108 260.5v55h299v-35q0 -50 34.5 -85.5t83.5 -35.5h170q49 0 84 35.5t35 85.5v35h299v-563q0 -152 -108 -260.5t-260 -108.5h-420zM201 1020v55 q0 152 108 260.5t260 108.5h269q152 0 260 -108.5t108 -260.5v-55h-299v35q0 50 -35 85.5t-84 35.5h-170q-49 0 -83.5 -35.5t-34.5 -85.5v-35h-299z" />
<glyph unicode=":" d="M516 0v358h361v-358h-361zM520 764v350h352v-350h-352z" />
<glyph unicode=";" d="M516 0v358h358v-358q0 -74 -52.5 -126t-127.5 -52v178h-178zM516 756v358h358v-358h-358z" />
<glyph unicode="&#x3c;" d="M219 571v299l955 408v-324l-545 -233l545 -232v-325z" />
<glyph unicode="=" d="M260 279v299h873v-299h-873zM260 817v297h873v-297h-873z" />
<glyph unicode="&#x3e;" d="M219 143v326l545 231l-545 234v323l955 -407v-299z" />
<glyph unicode="?" d="M227 981v55q0 169 119.5 288.5t288.5 119.5h22v-270q-56 -8 -93.5 -52t-37.5 -102v-39h-299zM561 0v268h268v-268h-268zM575 389v258l218 217q67 67 67 142v14q0 58 -38 102t-95 52v270h18q174 0 296 -118.5t122 -289.5v-41q-4 -90 -42.5 -151.5t-116.5 -132.5l-189 -197 v-125h-240z" />
<glyph unicode="@" d="M203 229v985l239 240h508q98 0 169 -71t71 -169v-886h-180l-60 59l-59 -59h-240l-108 110v230h239v-90h-2q0 -17 12 -29t29 -12h90q15 0 27 12t12 29v268q0 17 -11.5 28t-27.5 11h-90q-17 0 -29 -11t-12 -28h2v-90h-239v229l108 111h240l59 -62v150q0 25 -17 42t-42 17 h-299q-74 0 -127 -52.5t-53 -125.5v-686q0 -75 53 -127.5t127 -52.5h577v-209h-727z" />
<glyph unicode="A" d="M209 0v1026l240 418h507l240 -418v-1026h-299v995q0 75 -52 128t-126 53h-31q-75 0 -127.5 -53t-52.5 -128v-307l90 88h209v-237h-119q-75 0 -127.5 -53t-52.5 -128v-358h-299z" />
<glyph unicode="B" d="M221 0v1434h299v-1176h264q44 0 82.5 38.5t38.5 82.5v160l-80 77h-207v240h197l80 100v80q0 44 -38.5 81.5t-82.5 37.5h-156v279h177q164 0 280.5 -117t116.5 -281v-180l-119 -119l129 -121v-473l-141 -143h-840z" />
<glyph unicode="C" d="M219 229v985l238 238h69v-1462h-69zM627 -10v278h149q48 0 84.5 32t36.5 87v201h297v-359l-238 -239h-329zM627 1194v258h329l238 -238v-327h-297v188q0 44 -38.5 81.5t-82.5 37.5h-149z" />
<glyph unicode="D" d="M221 0v1434h299v-1166h254q50 0 84.5 35t34.5 84v657q0 50 -34.5 84.5t-84.5 34.5h-166v271h187q164 0 280.5 -117t116.5 -283v-796l-238 -238h-733z" />
<glyph unicode="E" d="M219 0v1434h952v-269h-655v-897h666v-268h-963zM606 586v268h438v-268h-438z" />
<glyph unicode="F" d="M219 0v1434h1008v-299h-709v-1135h-299zM608 582v270h518v-270h-518z" />
<glyph unicode="G" d="M201 229v826q0 166 116.5 282.5t280.5 116.5h197q164 0 280.5 -116.5t116.5 -282.5v-170h-299v180q0 49 -34.5 84t-84.5 35h-156q-49 0 -83.5 -34.5t-34.5 -84.5v-686q0 -51 34 -86t84 -35h156q50 0 84.5 35t34.5 86v78l-139 131v119h438v-717h-148l-69 69l-72 -69h-465z " />
<glyph unicode="H" d="M219 0v1434h297v-1434h-297zM606 582v270h271v582h297v-1434h-297v522l-62 60h-209z" />
<glyph unicode="I" d="M209 0v268h975v-268h-975zM242 1165v269h909v-269h-246l-59 -59v-748h-299v748l-60 59h-245z" />
<glyph unicode="J" d="M209 403h297v-28q0 -51 35.5 -86t85.5 -35h121q50 0 85 35t35 86v1059h297v-1051q0 -164 -116.5 -280.5t-280.5 -116.5h-141q-173 0 -295.5 122t-122.5 295zM408 1225v209h370v-269h-311z" />
<glyph unicode="K" d="M240 0v1434h299v-451l450 451h207v-207l-657 -656v-571h-299zM772 676l229 229l242 -905h-291z" />
<glyph unicode="L" d="M233 0v1434h308v-1434h-308zM641 0v299h625v-299h-625z" />
<glyph unicode="M" d="M219 0v1434h158l319 -478l299 478h179v-1434h-279v856l-160 -258h-78l-159 258v-856h-279z" />
<glyph unicode="N" d="M219 0v1434h180l496 -775v775h279v-1434h-181l-495 774v-774h-279z" />
<glyph unicode="O" d="M209 229v836q0 164 116.5 280.5t282.5 116.5h176q166 0 283 -116.5t117 -280.5v-836l-240 -239h-205v268h27q50 0 84.5 35t34.5 86v696q0 49 -34.5 84t-84.5 35h-139q-49 0 -84 -35t-35 -84v-696q0 -51 34.5 -86t84.5 -35h26v-268h-204z" />
<glyph unicode="P" d="M209 0v1434h610q173 0 295.5 -122.5t122.5 -295.5v-279l-258 -260h-361v289h201q50 0 84.5 35t34.5 86v157q0 51 -34.5 86t-84.5 35h-311v-1165h-299z" />
<glyph unicode="Q" d="M209 227v838q0 164 116.5 280.5t282.5 116.5h45v-268h-26q-50 0 -84.5 -35t-34.5 -86v-696q0 -49 35 -84t84 -35h139q50 0 84.5 35t34.5 84v696q0 51 -34.5 86t-84.5 35h-27v268h45q166 0 283 -116.5t117 -280.5v-838l-158 -155q5 -33 29 -54.5t57 -21.5h41v-186h-233 l-181 180h-290z" />
<glyph unicode="R" d="M221 0v1434h572q164 0 280.5 -117t116.5 -281v-229l-170 -172l170 -172v-463h-297v285q0 111 -79 189.5t-191 78.5h-15v238h205l80 79v174q0 51 -35.5 86t-85.5 35h-254v-1165h-297z" />
<glyph unicode="S" d="M182 240v178h299v-29q0 -51 35 -86t86 -35h184q50 0 84.5 35t34.5 86v121h299v-291l-219 -219h-563zM219 948v246l238 240h485l240 -240v-178h-299v28q0 51 -34.5 86t-84.5 35h-127q-50 0 -84.5 -35t-34.5 -86v-96h-299zM223 879h633q130 0 227.5 -85.5t116.5 -213.5 h-633q-131 0 -229 86t-115 213z" />
<glyph unicode="T" d="M168 1165v269h1057v-269h-1057zM547 0v1067h299v-1067h-299z" />
<glyph unicode="U" d="M219 408v1026h297v-1055q0 -51 35.5 -86t85.5 -35h14v-268h-14q-173 0 -295.5 122.5t-122.5 295.5zM741 -10v268h15q50 0 85.5 35t35.5 86v1055h297v-1026q0 -173 -122.5 -295.5t-295.5 -122.5h-15z" />
<glyph unicode="V" d="M219 418v1016h297v-934l180 -178l181 178v934h297v-1016l-433 -432h-90z" />
<glyph unicode="W" d="M219 0v1434h279v-838l159 240h78l160 -240v838h279v-1434h-158l-320 477l-319 -477h-158z" />
<glyph unicode="X" d="M123 0l356 662l172 -328l-178 -334h-350zM172 1434h315l758 -1434h-313zM739 1143l158 291h348l-332 -617z" />
<glyph unicode="Y" d="M209 354v60h270v-60q0 -49 34.5 -83.5t84.5 -34.5h168q50 0 84.5 34.5t34.5 83.5v1080h299v-1198l-240 -240h-377q-148 0 -253 104.5t-105 253.5zM229 737v697h299v-547q0 -49 35 -84t84 -35h148v-270h-326z" />
<glyph unicode="Z" d="M211 0l637 1434h328l-639 -1434h-326zM260 1165v269h512l-121 -269h-391zM612 0l121 268h455v-268h-576z" />
<glyph unicode="[" d="M428 0v1434h539v-240h-209l-60 -59v-836l60 -59h209v-240h-539z" />
<glyph unicode="\" d="M213 1434h317l650 -1434h-316z" />
<glyph unicode="]" d="M426 0v240h209l61 59v836l-61 59h-209v240h539v-1434h-539z" />
<glyph unicode="a" d="M209 0v1026l240 418h507l240 -418v-1026h-299v995q0 75 -52 128t-126 53h-31q-75 0 -127.5 -53t-52.5 -128v-307l90 88h209v-237h-119q-75 0 -127.5 -53t-52.5 -128v-358h-299z" />
<glyph unicode="b" d="M221 0v1434h299v-1176h264q44 0 82.5 38.5t38.5 82.5v160l-80 77h-207v240h197l80 100v80q0 44 -38.5 81.5t-82.5 37.5h-156v279h177q164 0 280.5 -117t116.5 -281v-180l-119 -119l129 -121v-473l-141 -143h-840z" />
<glyph unicode="c" d="M219 229v985l238 238h69v-1462h-69zM627 -10v278h149q48 0 84.5 32t36.5 87v201h297v-359l-238 -239h-329zM627 1194v258h329l238 -238v-327h-297v188q0 44 -38.5 81.5t-82.5 37.5h-149z" />
<glyph unicode="d" d="M221 0v1434h299v-1166h254q50 0 84.5 35t34.5 84v657q0 50 -34.5 84.5t-84.5 34.5h-166v271h187q164 0 280.5 -117t116.5 -283v-796l-238 -238h-733z" />
<glyph unicode="e" d="M219 0v1434h952v-269h-655v-897h666v-268h-963zM606 586v268h438v-268h-438z" />
<glyph unicode="f" d="M219 0v1434h1008v-299h-709v-1135h-299zM608 582v270h518v-270h-518z" />
<glyph unicode="g" d="M201 229v826q0 166 116.5 282.5t280.5 116.5h197q164 0 280.5 -116.5t116.5 -282.5v-170h-299v180q0 49 -34.5 84t-84.5 35h-156q-49 0 -83.5 -34.5t-34.5 -84.5v-686q0 -51 34 -86t84 -35h156q50 0 84.5 35t34.5 86v78l-139 131v119h438v-717h-148l-69 69l-72 -69h-465z " />
<glyph unicode="h" d="M219 0v1434h297v-1434h-297zM606 582v270h271v582h297v-1434h-297v522l-62 60h-209z" />
<glyph unicode="i" d="M209 0v268h975v-268h-975zM242 1165v269h909v-269h-246l-59 -59v-748h-299v748l-60 59h-245z" />
<glyph unicode="j" d="M209 403h297v-28q0 -51 35.5 -86t85.5 -35h121q50 0 85 35t35 86v1059h297v-1051q0 -164 -116.5 -280.5t-280.5 -116.5h-141q-173 0 -295.5 122t-122.5 295zM408 1225v209h370v-269h-311z" />
<glyph unicode="k" d="M240 0v1434h299v-451l450 451h207v-207l-657 -656v-571h-299zM772 676l229 229l242 -905h-291z" />
<glyph unicode="l" d="M233 0v1434h308v-1434h-308zM641 0v299h625v-299h-625z" />
<glyph unicode="m" d="M219 0v1434h158l319 -478l299 478h179v-1434h-279v856l-160 -258h-78l-159 258v-856h-279z" />
<glyph unicode="n" d="M219 0v1434h180l496 -775v775h279v-1434h-181l-495 774v-774h-279z" />
<glyph unicode="o" d="M209 229v836q0 164 116.5 280.5t282.5 116.5h176q166 0 283 -116.5t117 -280.5v-836l-240 -239h-205v268h27q50 0 84.5 35t34.5 86v696q0 49 -34.5 84t-84.5 35h-139q-49 0 -84 -35t-35 -84v-696q0 -51 34.5 -86t84.5 -35h26v-268h-204z" />
<glyph unicode="p" d="M209 0v1434h610q173 0 295.5 -122.5t122.5 -295.5v-279l-258 -260h-361v289h201q50 0 84.5 35t34.5 86v157q0 51 -34.5 86t-84.5 35h-311v-1165h-299z" />
<glyph unicode="q" d="M209 227v838q0 164 116.5 280.5t282.5 116.5h45v-268h-26q-50 0 -84.5 -35t-34.5 -86v-696q0 -49 35 -84t84 -35h139q50 0 84.5 35t34.5 84v696q0 51 -34.5 86t-84.5 35h-27v268h45q166 0 283 -116.5t117 -280.5v-838l-158 -155q5 -33 29 -54.5t57 -21.5h41v-186h-233 l-181 180h-290z" />
<glyph unicode="r" d="M221 0v1434h572q164 0 280.5 -117t116.5 -281v-229l-170 -172l170 -172v-463h-297v285q0 111 -79 189.5t-191 78.5h-15v238h205l80 79v174q0 51 -35.5 86t-85.5 35h-254v-1165h-297z" />
<glyph unicode="s" d="M182 240v178h299v-29q0 -51 35 -86t86 -35h184q50 0 84.5 35t34.5 86v121h299v-291l-219 -219h-563zM219 948v246l238 240h485l240 -240v-178h-299v28q0 51 -34.5 86t-84.5 35h-127q-50 0 -84.5 -35t-34.5 -86v-96h-299zM223 879h633q130 0 227.5 -85.5t116.5 -213.5 h-633q-131 0 -229 86t-115 213z" />
<glyph unicode="t" d="M168 1165v269h1057v-269h-1057zM547 0v1067h299v-1067h-299z" />
<glyph unicode="u" d="M219 408v1026h297v-1055q0 -51 35.5 -86t85.5 -35h14v-268h-14q-173 0 -295.5 122.5t-122.5 295.5zM741 -10v268h15q50 0 85.5 35t35.5 86v1055h297v-1026q0 -173 -122.5 -295.5t-295.5 -122.5h-15z" />
<glyph unicode="v" d="M219 418v1016h297v-934l180 -178l181 178v934h297v-1016l-433 -432h-90z" />
<glyph unicode="w" d="M219 0v1434h279v-838l159 240h78l160 -240v838h279v-1434h-158l-320 477l-319 -477h-158z" />
<glyph unicode="x" d="M123 0l356 662l172 -328l-178 -334h-350zM172 1434h315l758 -1434h-313zM739 1143l158 291h348l-332 -617z" />
<glyph unicode="y" d="M209 354v60h270v-60q0 -49 34.5 -83.5t84.5 -34.5h168q50 0 84.5 34.5t34.5 83.5v1080h299v-1198l-240 -240h-377q-148 0 -253 104.5t-105 253.5zM229 737v697h299v-547q0 -49 35 -84t84 -35h148v-270h-326z" />
<glyph unicode="z" d="M211 0l637 1434h328l-639 -1434h-326zM260 1165v269h512l-121 -269h-391zM612 0l121 268h455v-268h-576z" />
<glyph unicode="{" d="M389 608v238h10q37 0 62.5 26.5t25.5 63.5v100q0 172 123.5 295t296.5 123h99v-240h-21q-82 0 -140.5 -57.5t-58.5 -140.5v-80q0 -87 -60.5 -148t-147.5 -61q87 0 147.5 -61t60.5 -148v-80q0 -83 58.5 -140.5t140.5 -57.5h21v-240h-99q-173 0 -296.5 122.5t-123.5 295.5 v100q0 37 -25.5 63.5t-62.5 26.5h-10z" />
<glyph unicode="|" d="M547 -14v686h297v-686h-297zM547 762v684h297v-684h-297z" />
<glyph unicode="}" d="M387 0v240h21q82 0 140 57.5t58 140.5v80q0 87 61 148t148 61q-87 0 -148 61t-61 148v80q0 83 -58 140.5t-140 57.5h-21v240h98q173 0 296.5 -123t123.5 -295v-100q0 -37 25.5 -63.5t62.5 -26.5h11v-238h-11q-37 0 -62.5 -26.5t-25.5 -63.5v-100q0 -173 -123.5 -295.5 t-296.5 -122.5h-98z" />
<glyph unicode="~" d="M217 537v299l29 16q17 9 44 19.5t93.5 23t128.5 8.5q128 -10 254 -88q55 -37 121 -41q28 -2 59 4t47 12t21 9l164 82v-301l-45 -23q-127 -51 -232 -51h-33q-61 4 -123 25.5t-89 36.5t-42 26l-7 4q-7 4 -14 7.5t-19 9t-24 9.5t-27.5 7t-30.5 4q-21 1 -44.5 -2t-38 -7 t-28.5 -9l-14 -5z" />
<glyph unicode="&#xa0;" />
<glyph unicode="&#xad;" d="M279 553v299h835v-299h-835z" />
<glyph unicode="&#xb0;" d="M457 1194q0 98 70.5 169t168.5 71t169 -71t71 -169t-71 -169t-169 -71t-168.5 71t-70.5 169zM616 1194q0 -32 24 -56t56 -24t56 24t24 56t-24 56t-56 24t-56 -24t-24 -56z" />
<glyph unicode="&#xd7;" d="M229 426l279 279l-279 276l191 190l278 -278l277 278l190 -190l-278 -276l278 -279l-190 -190l-277 278l-278 -278z" />
<glyph unicode="&#xf7;" d="M168 569v269h1057v-269h-1057zM547 242q0 62 43.5 105.5t105.5 43.5q63 0 106.5 -43.5t43.5 -105.5q0 -63 -43.5 -106.5t-106.5 -43.5q-62 0 -105.5 43.5t-43.5 106.5zM547 1167q0 62 44 106t105 44q63 0 106.5 -44t43.5 -106q0 -63 -43.5 -106t-106.5 -43 q-62 0 -105.5 43t-43.5 106z" />
<glyph unicode="&#x2000;" horiz-adv-x="732" />
<glyph unicode="&#x2001;" horiz-adv-x="1464" />
<glyph unicode="&#x2002;" horiz-adv-x="732" />
<glyph unicode="&#x2003;" horiz-adv-x="1464" />
<glyph unicode="&#x2004;" horiz-adv-x="488" />
<glyph unicode="&#x2005;" horiz-adv-x="366" />
<glyph unicode="&#x2006;" horiz-adv-x="244" />
<glyph unicode="&#x2007;" horiz-adv-x="244" />
<glyph unicode="&#x2008;" horiz-adv-x="183" />
<glyph unicode="&#x2009;" horiz-adv-x="292" />
<glyph unicode="&#x200a;" horiz-adv-x="81" />
<glyph unicode="&#x2010;" d="M279 553v299h835v-299h-835z" />
<glyph unicode="&#x2011;" d="M279 553v299h835v-299h-835z" />
<glyph unicode="&#x2012;" d="M279 553v299h835v-299h-835z" />
<glyph unicode="&#x2013;" horiz-adv-x="1581" d="M279 553v299h1024v-299h-1024z" />
<glyph unicode="&#x2014;" horiz-adv-x="2605" d="M279 553v299h2048v-299h-2048z" />
<glyph unicode="&#x2018;" d="M516 895v358q0 75 53 128t127 53v-181h181v-358h-361z" />
<glyph unicode="&#x2019;" d="M516 1075h180v-180q74 0 127.5 52.5t53.5 127.5v359h-361v-359z" />
<glyph unicode="&#x201c;" d="M248 895v358q0 75 52.5 128t127.5 53v-181h178v-358h-358zM786 895v358q0 75 52.5 128t126.5 53v-181h180v-358h-359z" />
<glyph unicode="&#x201d;" d="M248 1075v359h358v-359q0 -75 -52.5 -127.5t-127.5 -52.5v180h-178zM786 1075v359h359v-359q0 -75 -52 -127.5t-126 -52.5v180h-181z" />
<glyph unicode="&#x202f;" horiz-adv-x="292" />
<glyph unicode="&#x205f;" horiz-adv-x="366" />
<glyph unicode="&#x25fc;" horiz-adv-x="1433" d="M0 0v1434h1434v-1434h-1434z" />
</font>
</defs>
</svg>
