<svg xmlns="http://www.w3.org/2000/svg"><symbol id="badge-architecture-drafting" viewBox="0 0 72 108"><path id="frame" d="M18.6 78.3l-1.2 1.8L0 54 36 0l17.4 26.1-1.2 1.8L36 3.6 2.4 54l16.2 24.3zm34.8-48.6L69.6 54 36 104.4 19.8 80.1l-1.2 1.8L36 108l36-54-17.4-26.1-1.2 1.8z"/><path id="linework" d="M38 20h-4v-4l2-2 2 2v4zm19 25.5h-6.8l-8.4-12.6c.8-1.1 1.2-2.5 1.2-3.9 0-3.9-3.1-7-7-7s-7 3.1-7 7c0 1.4.4 2.7 1.2 3.9l-8.4 12.6H15v2h5.5l-4.3 6.4.3 1.4 1.7 1.1-3.5 5.3 1.7 1.1 4.1-6.1 6.2-9.2H33v-2h-5.2l6.3-9.5v-2.4l-.6-.3c-.5-.3-1-.7-1.4-1.1-.8-.9-1.2-2-1.2-3.2 0-2.8 2.2-5 5-5s5 2.2 5 5c0 1.2-.4 2.3-1.2 3.2-.1.2-.3.3-.4.5-.2.2-.5.4-.7.5-.3.2-.6.3-.9.5v2.2l6.4 9.7H37V41h-2v11h2v-4.5h8.5l6.2 9.2 4.1 6.1 1.7-1.1-3.5-5.3 1.7-1.1.3-1.4-4.3-6.4H57v-2zm-8 14h-2v2h-2v-4h-2v4h-2v-2h-2v2h-2v-4h-2v4h-2v-2h-2v2h-2v-4h-2v4h-2v-2h-2v4h26v-4zM31.5 85l1 1.6 3.4 5.3 3.4-5.3 1-1.6 1.6-2.4c.1-.1.1-.2.1-.3V66.5H29.8V82c0 .2.1.4.2.6l.5.8.7-.4.2-.1.8-.5 2.4-1.3 1.4-.8.5.3 1.2.7 2.1 1.2-1.7 2.5h-6.6z"/></symbol><symbol id="badge-carpentry-woodworking" viewBox="0 0 72 108"><path id="frame" d="M17.4 80.1L0 54 36 0l17.4 26.1-1.2 1.8L36 3.6 2.4 54l16.2 24.3-1.2 1.8zm36-50.4L69.6 54 36 104.4 19.8 80.1l-1.2 1.8L36 108l36-54-17.4-26.1-1.2 1.8z"/><path id="linework" d="M49.5 69.5c-.6.8-.5 1.9.2 2.5l-1.1 1.4c-1.2-1-1.6-2.6-1-4-.7-.1-1.3-.3-1.9-.8l1.1-1.4c.7.6 1.7.5 2.4-.1l1.3-1.5c.6-.7.5-1.9-.2-2.5L48.8 62l-5.9 7.1-.1-3.8-.2.2-1.9 1.9v-3.8l-1.9 1.9v-3.8L37 63.6v-3.8l-1.9 1.9v-2.4l-11.4 12h-1.3l-2.5-2.5v-1.3l25-23.8 2.6 2.6-6.5 6.8 10.3 8.7c.8.7 1.2 1.6 1.3 2.6 1-.2 2 .1 2.8.8l-1.1 1.4c-.7-.6-1.9-.5-2.5.2l-2.3 2.7zm0-31.3c-3.7-3.7-7.5 0-7.5 0l10.2 10.2h1.2l2.5-2.5v-1.2c0-.1-3.8-3.9-6.4-6.5zm-29.4 2.2v6.2l1.9-1.9v3.8l1.9-1.9v3.8l1.9-1.9v3.8l1.9-1.9v3.8l1.9-1.9v3.4l6.8-6.5-14-11.8-2.3 3zM36 18l-1 1v14h-1v2h4c1.1 0 2-.9 2-2h-3V19l-1-1zm-2 15h-2c0 1.1.9 2 2 2v-2zm2 57l1-1V75h3c0-1.1-.9-2-2-2h-4v2h1v14l1 1zm-2-15v-2c-1.1 0-2 .9-2 2h2zm20-23v4c0 1.1.9 2 2 2v-3h4l1-1-1-1h-4v-1h-2zm0 0h2v-2c-1.1 0-2 .9-2 2zm-38-2v2h2c0-1.1-.9-2-2-2zm2 6v-4h-2v1h-4l-1 1 1 1h4v3c1.1 0 2-.9 2-2z"/></symbol><symbol id="badge-digital-design" viewBox="0 0 72 108"><path id="frame" d="M18.6 78.3l-1.2 1.8L0 54 36 0l17.4 26.1-1.2 1.8L36 3.6 2.4 54l16.2 24.3zm34.8-48.6L69.6 54 36 104.4 19.8 80.1l-1.2 1.8L36 108l36-54-17.4-26.1-1.2 1.8z"/><path id="linework" d="M48.7 67.1H23.3l-.9-1.4 2-4 .9-.6H35v-2H24l-1-1V42.9l1-1h24l1 1V58l-1 1H37v4H25.9l-1 2H47l-1-2h-7v-2h7.7l.9.6 2 4-.9 1.5zM12 49v10h2V49h-2zm40.2 2l2.4 2H51v2h3.5l-2.4 2H55l3-3-3-3h-2.8zM21 53h-3.5l2.4-2H17l-3 3 3 3h2.8l-2.4-2H21v-2zm39 6V49h-2v10h2zM31 20h10v-2H31v2zm8 62.2l-2 2.4V69.1h-2v15.5l-2-2.4V85l3 3 3-3v-2.8zm-6-56.4l2-2.4v16.5h2V23.5l2 2.4V23l-3-3-3 3v2.8zm10 14.1v-6.5l2 2.4V33l-3-3-3 3v2.8l2-2.4v6.5h2zM27 33v2.8l2-2.4v6.5h2v-6.5l2 2.4V33l-3-3-3 3zm18 42v-2.8l-2 2.4v-6.5h-2v6.5l-2-2.4V75l3 3 3-3zm-16-6.9v6.5l-2-2.4V75l3 3 3-3v-2.8l-2 2.4v-6.5h-2zM41 88H31v2h10v-2z"/></symbol><symbol id="badge-electronics" viewBox="0 0 72 108"><path id="frame" d="M17.4 80.1L0 54 36 0l17.4 26.1-1.2 1.8L36 3.6 2.4 54l16.2 24.3-1.2 1.8zM69.6 54L36 104.4 19.8 80.1l-1.2 1.8L36 108l36-54-17.4-26.1-1.2 1.8L69.6 54z"/><path id="linework" d="M35 46v-4h-4v-2h4v-4h2v4h4v2h-4v4h-2zm6 20H31v2h10v-2zM15.3 53.4l17.2-25.8c-.9-.9-1.5-2.1-1.5-3.5 0-2.8 2.2-5 5-5s5 2.2 5 5-2.2 5-5 5c-.7 0-1.3-.1-1.9-.4L18 53h5.5l1.7-2.6h1.7l3.2 4.8 3.2-4.8H35l3.2 4.8 3.2-4.8h1.7l3.2 4.8 1.2-1.8.5-.4h7.9l.8 1.6-17.2 25.7c.9.9 1.5 2.1 1.5 3.5 0 2.8-2.2 5-5 5s-5-2.2-5-5 2.2-5 5-5c.7 0 1.3.1 1.9.4L54 55h-5.5l-1.7 2.6h-1.7L42 52.8l-3.2 4.8h-1.7L34 52.8l-3.2 4.8h-1.7L26 52.8l-1.2 1.8-.8.4h-7.9l-.8-1.6zM39 83.9c0-1.7-1.3-3-3-3s-3 1.3-3 3 1.3 3 3 3 3-1.4 3-3z"/></symbol><symbol id="badge-engineering" viewBox="0 0 72 108"><path id="linework" d="M26.3 32.4v-.1l-2-3.1 4.4-4.4 3.1 2h.1l.7-3.6h6.2l.7 3.6h.1l3.1-2 4.4 4.4-2 3.1v.1l3.6.7v4.1h-2v-2.5l-3.1-.6-.2-.6c-.1-.4-.2-.6-.4-.9l-.3-.5 1.8-2.7-2.1-2.1-2.7 1.8-.5-.3c-.3-.1-.6-.3-.9-.4l-.6-.2-.6-3.1h-2.9l-.6 3.1-.6.4c-.4.1-.6.2-.9.4l-.5.3-2.7-1.8-2.1 2.1 1.8 2.7-.3.5c-.1.2-.2.5-.4.9l-.2.6-3.1.6v2.5h-2v-4.1l3.7-.9zm32.4 21.1H38l1.9-2 6.7-7v7h2v-7l6.7 7h2.8L48.1 41h-9.4v2h6.7l-8.2 8.5-.5.5V41h-2v11l-.5-.5L26 43h6.7v-2h-9.4L13.2 51.5H16l6.7-7v7h2v-7l6.7 7 1.9 2H12.7v4h4c2.8 0 5 2.2 5 5v1h4v-1c0-2.8 2.2-5 5-5h10c2.8 0 5 2.2 5 5v1h4v-1c0-2.8 2.2-5 5-5h4v-4zm-5 13h1v-2h-1c-1.8 0-2.8.6-3.6 1.2-.7.5-1.2.8-2.4.8s-1.8-.4-2.4-.8c-.8-.5-1.8-1.2-3.6-1.2s-2.8.6-3.6 1.2c-.7.5-1.2.8-2.4.8s-1.7-.4-2.4-.8c-.8-.5-1.8-1.2-3.6-1.2s-2.8.6-3.6 1.2c-.7.5-1.2.8-2.4.8s-1.7-.4-2.4-.8c-.8-.5-1.8-1.2-3.6-1.2h-1v2h1c1.2 0 1.7.4 2.4.8.8.5 1.8 1.2 3.6 1.2s2.8-.6 3.6-1.2c.7-.5 1.2-.8 2.4-.8s1.7.4 2.4.8c.8.5 1.8 1.2 3.6 1.2s2.8-.6 3.6-1.2c.7-.5 1.2-.8 2.4-.8s1.8.4 2.4.8c.8.5 1.8 1.2 3.6 1.2s2.8-.6 3.6-1.2c.6-.4 1.2-.8 2.4-.8zM41.6 37.2v-.7c0-3.3-2.7-6-6-6s-6 2.7-6 6v.7h2v-.7c0-2.2 1.8-4 4-4s4 1.8 4 4v.7h2zm7.1 38.7v-4.1h-2v2.5l-3.1.6-.2.6c-.1.4-.2.6-.4.9l-.3.5 1.8 2.7-2.1 2.1-2.7-1.8-.5.3c-.3.1-.5.3-.9.4l-.6.2-.6 3.1h-2.9l-.6-3.1-.6-.4c-.4-.1-.7-.2-.9-.4l-.5-.3-2.7 1.8-2.1-2.1 1.8-2.7-.3-.5c-.1-.2-.2-.5-.4-.9l-.2-.6-3.1-.6v-2.5h-2v4.1l3.6.7v.1l-2 3.1 4.4 4.4 3.1-2h.1l.7 3.6h6.2l.7-3.6h.1l3.1 2 4.4-4.4-2-3.1v-.1l3.7-.5zm-19.1-4.1v.7c0 3.3 2.7 6 6 6s6-2.7 6-6v-.7h-2v.7c0 2.2-1.8 4-4 4s-4-1.8-4-4v-.7h-2z"/><path id="frame" d="M17.4 80.1L0 54 36 0l17.4 26.1-1.2 1.8L36 3.6 2.4 54l16.2 24.3-1.2 1.8zm36-50.4L69.6 54 36 104.4 19.8 80.1l-1.2 1.8L36 108l36-54-17.4-26.1-1.2 1.8z"/></symbol><symbol id="badge-graphics" viewBox="0 0 72 108"><path id="frame" d="M18.6 78.3l-1.2 1.8L0 54 36 0l17.4 26.1-1.2 1.8L36 3.6 2.4 54l16.2 24.3zm34.8-48.6L69.6 54 36 104.4 19.8 80.1l-1.2 1.8L36 108l36-54-17.4-26.1-1.2 1.8z"/><path id="linework" d="M26.9 59H15.3l5.8-10 5.8 10zM35 24v2h-2v2h2v2h2v-2h2v-2h-2v-2h-2zm-2 16h2v2h2v-2h2v-2h-2v-2h-2v2h-2v2zm14-4v2h-2v2h2v2h2v-2h2v-2h-2v-2h-2zM37 84v-2h2v-2h-2v-2h-2v2h-2v2h2v2h2zm2-16h-2v-2h-2v2h-2v2h2v2h2v-2h2v-2zm10 4v-2h2v-2h-2v-2h-2v2h-2v2h2v2h2zM27 38h-2v-2h-2v2h-2v2h2v2h2v-2h2v-2zm-2 34v-2h2v-2h-2v-2h-2v2h-2v2h2v2h2zm16.5-23h-10v10h10V49zm14.4 5c0-2.6-2.1-4.7-4.7-4.7s-4.7 2.1-4.7 4.7 2.1 4.7 4.7 4.7 4.7-2.1 4.7-4.7z"/></symbol><symbol id="badge-leadership" viewBox="0 0 72 108"><path id="frame" d="M18.6 78.3l-1.2 1.8L0 54 36 0l17.4 26.1-1.2 1.8L36 3.6 2.4 54l16.2 24.3zm34.8-48.6L69.6 54 36 104.4 19.8 80.1l-1.2 1.8L36 108l36-54-17.4-26.1-1.2 1.8z"/><path id="linework" d="M34.2 64.1l-3 2.2 1.1 3.5-1.5 1.1-3-2.2-3 2.2-1.5-1.1 1.1-3.5-3-2.2.6-1.7h3.7l1.1-3.5h1.8l1.1 3.5h3.7l.8 1.7zm-14.3-8.7l3-2.2 3 2.2 1.5-1.1-1.1-3.5 3-2.2-.6-1.7H25l-1.1-3.5h-1.8L21 46.9h-3.7l-.6 1.7 3 2.2-1.1 3.5 1.3 1.1zM39 45.8l1.5-1.1-1.1-3.5 3-2.2-.6-1.7H38l-1.1-3.5h-1.8L34 37.3h-3.7l-.6 1.7 3 2.2-1.1 3.5 1.5 1.1 3-2.2 2.9 2.2zm15.9 1.1h-3.7l-1.1-3.5h-1.8l-1.1 3.5h-3.7l-.6 1.7 3 2.2-1.1 3.5 1.5 1.1 3-2.2 3 2.2 1.5-1.1-1.1-3.5 3-2.2-.8-1.7zm-5 15.5h-3.7l-1.1-3.5h-1.8l-1.1 3.5h-3.7l-.6 1.7 3 2.2-1.1 3.5 1.5 1.1 3-2.2 3 2.2 1.5-1.1-1.1-3.5 3-2.2-.8-1.7z"/></symbol><symbol id="badge-masonry" viewBox="0 0 72 108"><path id="linework" d="M31.3 25h9.3l4 6H27.3l4-6zm1.4-2h6.7L36 18l-3.3 5zm-16 24H27v-6h-6.3l-4 6zM29 47h14v-6H29v6zm16-6v6h10.3l-4-6H45zm1-8h-9v6h13l-4-6zm-24 6h13v-6h-9l-4 6zm11 31.4c0-1.7 1.3-3 3-3s3 1.3 3 3v2.3l4-1 .7-1.3L36.9 50H35l-6.7 20.4.7 1.3 4 1v-2.3zm4 0c0-.6-.4-1-1-1s-1 .4-1 1v6.4l-2 2.9V88c0 1.7 1.3 3 3 3s3-1.3 3-3v-8.3l-2-2.9v-6.4zM24.2 70l8.3-20H14.7l-1.3 2h14.4L17 59.1l1.1 1.7 10.7-7.1-6 14.3 1.4 2zm33.1-20H39.5l8.3 20 1.3-2-6-14.3 10.7 7.1 1.1-1.7L44.3 52h14.4l-1.4-2z"/><path id="frame" d="M17.4 80.1L0 54 36 0l17.4 26.1-1.2 1.8L36 3.6 2.4 54l16.2 24.3-1.2 1.8zm36-50.4L69.6 54 36 104.4 19.8 80.1l-1.2 1.8L36 108l36-54-17.4-26.1-1.2 1.8z"/></symbol><symbol id="badge-service" viewBox="0 0 72 108"><path id="frame" d="M18.6 78.3l-1.2 1.8L0 54 36 0l17.4 26.1-1.2 1.8L36 3.6 2.4 54l16.2 24.3zm34.8-48.6L69.6 54 36 104.4 19.8 80.1l-1.2 1.8L36 108l36-54-17.4-26.1-1.2 1.8z"/><path id="linework" d="M45.6 61.5l-3 3-.9.9-3.1-3.1-3.5-3.5-3.5-3.5h-1.4l-.3.3-2.9-3h-1.4l-5.7 5.7v.7h-4.8l-1-1V46.3l1-1h15.5L28.9 47v1.4c1.3 1.3 2.9 1.9 4.6 1.9 1.7 0 3.3-.6 4.6-1.9l.1-.1 11.4 11.4-2.8 2.8-1.2-1zm-19.3-6.7L22.1 59l2.1 2.1 1.7-1.7 2.6-2.6-2.2-2zm6.7 4.6l-2.1-2.1-5.7 5.7 2.1 2.1 5.7-5.7zm-3.6 6.4l2.1 2.1 5-5-2.1-2.1-5 5zm10.6.7l-2.1-2.1-4.2 4.2 2.1 2.1 4.2-4.2zM56.1 59l1-1V45.3l-1-1h-11L40.8 40h-2l-7.7 7.7c1.7 1.1 4.1.9 5.6-.6l1.5-1.5 1.4 1.4L51 58.4v.6h5.1zM36.8 90.6l6.2-9.3-.1-1.3-2.7-2.7h-1.5L36 80.5l-2.8-3.1h-1.5L29.1 80l-.1 1.3 6.2 9.3h1.6zm-3.6-59.9l2.8-3.1 2.8 3.1h1.5L43 28l.1-1.3-6.2-9.3h-1.7L29 26.7l.1 1.3 2.7 2.7h1.4z"/></symbol><symbol id="badge-welding-metalsmithing" viewBox="0 0 72 108"><path id="frame" d="M17.4 80.1L0 54 36 0l17.4 26.1-1.2 1.8L36 3.6 2.4 54l16.2 24.3-1.2 1.8zm36-50.4L69.6 54 36 104.4 19.8 80.1l-1.2 1.8L36 108l36-54-17.4-26.1-1.2 1.8z"/><path id="linework" d="M51 66.4L44.4 73H27.6L21 66.4V44c0-5 4-9 9-9h5v11h-9v7h20v-7h-9V35h5c5 0 9 4 9 9v22.4zM19.4 53.9l-4.6-4.6-1.4 1.4 2.2 2.2h-3.1v2h3.1l-2.2 2.2 1.4 1.4 4.6-4.6zm-8.9 1v-2h-2v2h2zm1.9 6l1.4-1.4-1.4-1.4-1.4 1.4 1.4 1.4zm1.4-12.6l-1.4-1.4-1.4 1.4 1.4 1.4 1.4-1.4zm38.8 5.6l4.6 4.6 1.4-1.4-2.2-2.2h3.1v-2h-3.1l2.2-2.2-1.4-1.4-4.6 4.6zm8.9-1v2h2v-2h-2zm-3.3 6.6l1.4 1.4 1.4-1.4-1.4-1.4-1.4 1.4zm1.4-12.7l-1.4 1.4 1.4 1.4 1.4-1.4-1.4-1.4zM42 80h3v-3H32v1h-6c.9 3 4.3 4 6 4 .6 0 1 .4 1 1v1c0 .5-.4 1-1 1h-2v3h12v-3h-2c-.6 0-1-.5-1-1v-1.3c.2-1.5 1.4-2.7 3-2.7zM30 28h-3v3h13v-1h6c-.9-3-4.3-4-6-4-.6 0-1-.4-1-1v-1c0-.5.4-1 1-1h2v-3H30v3h2c.6 0 1 .5 1 1v1.3c-.2 1.5-1.4 2.7-3 2.7z"/></symbol><symbol id="icon-arrow-left" viewBox="0 0 6 12"><path d="M6 0L0 6l6 6z"/></symbol><symbol id="icon-arrow-right-red" viewBox="-302 391 6 12"><style>.st0{fill:#ff4944}</style><path class="st0" d="M-302 403l6-6-6-6v12z"/></symbol><symbol id="icon-arrow-right" viewBox="0 0 6 12"><path d="M0 12l6-6-6-6z"/></symbol><symbol id="icon-arrows" viewBox="0 0 9 9"><path d="M0 0v9l4.5-4.5z"/><path d="M4.5 0v9L9 4.5z"/></symbol><symbol id="icon-circle-stroke" viewBox="0 0 62.8 63"><style>.circle-stroke{fill:none}</style><path id="bottom" class="circle-stroke" d="M1.5 33.5c1 15.6 14 28 29.9 28 15.9 0 28.9-12.4 29.9-28"/><path id="top" class="circle-stroke" d="M61.3 29.5c-1-15.6-14-28-29.9-28-15.9 0-28.9 12.4-29.9 28"/></symbol><symbol id="icon-facebook" viewBox="0 0 29.9 30"><path id="frame" d="M28.9 16c-.5 7.3-6.6 13-14 13S1.5 23.3 1 16H0c.5 7.8 7 14 15 14 7.9 0 14.4-6.2 15-14h-1.1zM15 0C7 0 .5 6.2 0 14h1C1.5 6.7 7.6 1 15 1s13.4 5.7 14 13h1c-.6-7.8-7.1-14-15-14"/><path id="icon" d="M21 9.5v10.7c0 .4-.3.7-.7.7h-3.1v-4.6h1.6l.2-1.8h-1.8v-1.2c0-.5.1-.9.9-.9h1v-1.6c-.2 0-.7-.1-1.4-.1-1.4 0-2.3.8-2.3 2.4v1.3h-1.6v1.8h1.6v4.6H9.6c-.4 0-.7-.3-.7-.7V9.5c0-.4.3-.7.7-.7h10.7c.4 0 .7.3.7.7"/></symbol><symbol id="icon-instagram" viewBox="0 0 29.9 30"><path id="frame" d="M28.9 16c-.5 7.3-6.6 13-14 13S1.5 23.3 1 16H0c.5 7.8 7 14 15 14 7.9 0 14.4-6.2 15-14h-1.1zM15 0C7 0 .5 6.2 0 14h1C1.5 6.7 7.6 1 15 1s13.4 5.7 14 13h1c-.6-7.8-7.1-14-15-14"/><path id="icon" d="M15 8h-2.9c-.7 0-1.3.2-1.7.3-.5.2-.9.5-1.3.9s-.6.8-.8 1.2c-.2.4-.3 1-.3 1.7v5.8c0 .7.2 1.3.3 1.7.2.5.4.9.8 1.2.4.4.8.6 1.2.8.4.2 1 .3 1.7.3h5.8c.7 0 1.3-.2 1.7-.3.5-.2.9-.4 1.2-.8s.6-.8.8-1.2c.2-.4.3-1 .3-1.7v-5.8c0-.7-.2-1.3-.3-1.7-.2-.5-.4-.9-.8-1.2s-.7-.7-1.2-.8c-.4-.2-1-.3-1.7-.3-.7-.1-.9-.1-2.8-.1m0 1.3h2.8c.7 0 1.1.1 1.3.2.3.1.6.3.8.5.2.2.4.5.5.8.1.2.2.6.2 1.3v5.6c0 .7-.1 1.1-.2 1.3-.1.3-.3.6-.5.8-.2.2-.5.4-.8.5-.2.1-.6.2-1.3.2h-5.6c-.7 0-1.1-.1-1.3-.2-.3-.1-.6-.3-.8-.5-.2-.2-.4-.5-.5-.8-.1-.2-.2-.6-.2-1.3v-5.6c0-.7.1-1.1.2-1.3.1-.3.3-.6.5-.8.2-.2.5-.4.8-.5.2-.1.6-.2 1.3-.2H15m0 8c-1.3 0-2.3-1-2.3-2.3 0-1.3 1-2.3 2.3-2.3 1.3 0 2.3 1 2.3 2.3 0 1.3-1.1 2.3-2.3 2.3m0-5.9c-2 0-3.6 1.6-3.6 3.6s1.6 3.6 3.6 3.6 3.6-1.6 3.6-3.6-1.7-3.6-3.6-3.6m4.5-.1c0 .5-.4.8-.8.8-.5 0-.8-.4-.8-.8 0-.5.4-.8.8-.8.5-.1.8.3.8.8"/></symbol><symbol id="icon-logo-footer" viewBox="0 0 86.6 54"><style>.st0{fill:#000}</style><g id="logo-mark-footer"><path class="st0" d="M18 0L0 27l8.7 13 .6-.9L1.2 27 18 1.8 26.1 14l.6-.9z"/><path class="st0" d="M26.7 14.9L34.8 27 18 52.2 9.9 40l-.6 1L18 54l18-27-8.7-13z"/><path class="st0" d="M22.8 18.5l-10.1 17h1.2l10-17z"/><path class="st0" d="M20.6 34v-4.8c0-1.3 1-2.3 2.3-2.3h1.2c1.3 0 2.3 1 2.3 2.3v1h-1.8v-1.1c0-.4-.3-.7-.7-.7H23c-.4 0-.7.3-.7.7v4c0 .4.3.7.7.7h1c.4 0 .7-.3.7-.7v-.5l-.8-.8v-.7h2.6v4.2h-.9l-.4-.3-.4.4H22L20.6 34z"/><path class="st0" d="M9.5 25.5v-4.8c0-1.3 1-2.3 2.3-2.3H13c1.3 0 2.3 1 2.3 2.3v1h-1.8v-1.1c0-.4-.3-.7-.7-.7h-.9c-.4 0-.7.3-.7.7v4c0 .4.3.7.7.7h.9c.4 0 .7-.3.7-.7v-.5l-.8-.8v-.7h2.6v4.2h-.9l-.4-.3-.4.4h-2.7l-1.4-1.4z"/></g><path id="logo-text-footer" class="st0" d="M48 24.3v-4c0-1.1.9-1.9 1.9-1.9h1c1.1 0 1.9.9 1.9 1.9v.8h-1.5v-.9c0-.3-.3-.6-.6-.6H50c-.3 0-.6.3-.6.6v3.3c0 .3.3.6.6.6h.8c.3 0 .6-.3.6-.6v-.4l-.7-.6V22h2.1v3.5h-.7l-.3-.3-.3.3h-2.3L48 24.3zm8.4-.6h1.5V20l.3-.3h1.2v-1.3H55v1.3h1.2l.3.3v3.7zm-1.6 1.7h4.7v-1.3h-4.7v1.3zm6.8 0H63v-5.7h1.2c.3 0 .6.3.6.6v.8l-.4.4h-1v1.2h.1c.7 0 1.3.6 1.3 1.3v1.4h1.4v-2.2l-.8-.8.8-.8v-1.1c0-1.1-.9-1.9-1.9-1.9h-2.8v6.8zm8.8 0h3V24h-3v1.4zm-1.9 0H70v-7h-1.5v7zm6.7-4.2c.1.8.8 1.5 1.7 1.5H80c-.1-.8-.8-1.5-1.7-1.5h-3.1m0-.4h1.5v-.5c0-.3.3-.6.6-.6h.6c.3 0 .6.3.6.6v.1H80v-.9l-1.2-1.2h-2.4l-1.2 1.2v1.3zm.9 4.6h2.7l1.1-1.1v-1.4h-1.5v.6c0 .3-.3.6-.6.6H77c-.3 0-.6-.3-.6-.6v-.1H75v.9l1.1 1.1zm-26.9 10h2.3l.3-.3.3.3h.7v-3.5h-2.1v.6l.7.6v.4c0 .3-.3.6-.6.6H50c-.3 0-.6-.3-.6-.6v-3.3c0-.3.3-.6.6-.6h.8c.3 0 .6.3.6.6v.9h1.5v-.8c0-1.1-.9-1.9-1.9-1.9h-1c-1.1 0-1.9.9-1.9 1.9v4l1.1 1.1zm5.6 0h1.5v-1.7c0-.5.4-.9.9-.9h.6v-1.2h-1l-.5.4v-1.5c0-.5.4-.9.9-.9h.1c.5 0 .9.4.9.9v4.8h1.5v-5l-1.2-2H56l-1.2 2v5.1zm6.8 0H63v-5.7h1.2c.3 0 .6.3.6.6v.8l-.4.4h-1v1.2h.1c.7 0 1.3.6 1.3 1.3v1.4h1.4v-2.2l-.8-.8.8-.8v-1.1c0-1.1-.9-1.9-1.9-1.9h-2.8v6.8zm6.7 0h1.5v-1.7c0-.5.4-.9.9-.9h.6v-1.2h-1l-.5.4v-1.5c0-.5.4-.9.9-.9h.2c.5 0 .9.4.9.9v4.8h1.5v-5l-1.2-2h-2.5l-1.2 2v5.1zm7.9 0h2.3l.3-.3.3.3h.7v-3.5h-2.1v.6l.7.6v.4c0 .3-.3.6-.6.6H77c-.3 0-.6-.3-.6-.6v-3.3c0-.3.3-.6.6-.6h.8c.3 0 .6.3.6.6v.9h1.5v-.8c0-1.1-.9-1.9-1.9-1.9h-1c-1.1 0-1.9.9-1.9 1.9v4l1.1 1.1zm7.6-4.2h2.1v1.3h-2.1v-1.3zm2.7-2.8v1.3h-3.2v4.4h3.2v1.3h-4.7v-7h4.7z"/></symbol><symbol id="icon-logo-header" viewBox="0 0 150.5 119.5"><path class="logo-text-header" d="M60 93.6v-9.4c0-2.5 2-4.5 4.5-4.5h2.2c2.5 0 4.5 2 4.5 4.5v1.9h-3.4V84c0-.7-.6-1.4-1.4-1.4h-1.8c-.7 0-1.4.6-1.4 1.4v7.8c0 .8.6 1.4 1.4 1.4h1.8c.7 0 1.4-.6 1.4-1.4V91l-1.6-1.5v-1.4h5v8.2h-1.7l-.8-.8-.7.8h-5.3L60 93.6zm19.8-1.5h3.4v-8.5l.7-.7h2.8v-3.1H76.3v3.1h2.8l.7.7v8.5zM76 96.2h11.1v-3.1H76v3.1zm16 0h3.4V82.9h2.9c.7 0 1.4.6 1.4 1.4v2l-.9.9h-2.3v2.7h.2c1.7 0 3.1 1.4 3.1 3.1v3.2h3.4v-5.3l-1.9-2 1.9-2v-2.6c0-2.5-2-4.5-4.5-4.5H92v16.4zm20.6 0h7.1v-3.4h-7.1v3.4zm-4.6 0h3.5V79.9H108v16.3zm16.8-10.7c.3 1.9 1.9 3.4 3.9 3.4h7.2c-.3-1.9-1.9-3.4-3.9-3.4h-7.2m-.1-.8h3.4v-1.1c0-.8.6-1.4 1.4-1.4h1.4c.7 0 1.4.6 1.4 1.4v.3h3.4v-2l-2.7-2.7h-5.5l-2.7 2.7v2.8zm2.3 10.8h6.4L136 93v-3.3h-3.4v1.4c0 .8-.6 1.4-1.4 1.4h-2.1c-.8 0-1.4-.6-1.4-1.4v-.3h-3.4v2l2.7 2.7zM63.8 119h5.3l.8-.8.8.8h1.7v-8.2h-5v1.4l1.6 1.5v.9c0 .8-.6 1.4-1.4 1.4h-1.8c-.7 0-1.4-.6-1.4-1.4v-7.8c0-.7.6-1.4 1.4-1.4h1.8c.7 0 1.4.6 1.4 1.4v2.1h3.4V107c0-2.5-2-4.5-4.5-4.5h-2.2c-2.5 0-4.5 2-4.5 4.5v9.4l2.6 2.6zm13.2-.2h3.4v-4.1c0-1.1.9-2.1 2.1-2.1h1.4V110h-2.4l-1 1v-3.5c0-1.1.9-2.1 2.1-2.1h.3c1.1 0 2 .9 2 2.1v11.3h3.4v-11.7l-2.7-4.8h-5.8l-2.7 4.8v11.7zm16 0h3.4v-13.3h2.9c.7 0 1.4.6 1.4 1.4v2l-.9.9h-2.3v2.7h.2c1.7 0 3.1 1.4 3.1 3.1v3.2h3.4v-5.3l-1.9-2 1.9-2V107c0-2.5-2-4.5-4.5-4.5H93v16.3zm15.8 0h3.4v-4.1c0-1.1.9-2.1 2.1-2.1h1.4V110h-2.4l-1 1v-3.5c0-1.1.9-2.1 2.1-2.1h.3c1.1 0 2 .9 2 2.1v11.3h3.4v-11.7l-2.7-4.8h-5.8l-2.7 4.8v11.7zm18.4.2h5.3l.8-.8.8.8h1.7v-8.2h-5v1.4l1.6 1.5v.9c0 .8-.6 1.4-1.4 1.4h-1.8c-.7 0-1.4-.6-1.4-1.4v-7.8c0-.7.6-1.4 1.4-1.4h1.8c.7 0 1.4.6 1.4 1.4v2.1h3.4V107c0-2.5-2-4.5-4.5-4.5h-2.2c-2.5 0-4.5 2-4.5 4.5v9.4l2.6 2.6zm16.7-9.2h5v3.1h-5v-3.1zm6.5-6.6v3.1h-7.5v10.2h7.6v3.1h-11v-16.3h10.9z"/><g class="logo-mark-header"><path id="frame" d="M44.5 21.8l-1 1.5L30 3 2 45l13.5 20.2-1 1.5L0 45 30 0l14.5 21.8zM60 45L45.5 23.3l-1 1.5L58 45 30 87 16.5 66.8l-1 1.5L30 90l30-45z"/><path id="slash" d="M37.9 30.9L21.2 59.1h1.9l16.8-28.2z"/><path id="g2" d="M34.4 56.7v-8.1c0-2.2 1.7-3.9 3.9-3.9h1.9c2.1 0 3.9 1.7 3.9 3.9v1.7h-2.9v-1.8c0-.6-.5-1.2-1.2-1.2h-1.5c-.6 0-1.2.5-1.2 1.2v6.7c0 .7.5 1.2 1.2 1.2H40c.6 0 1.2-.5 1.2-1.2v-.8l-1.4-1.3V52H44v7h-1.4l-.7-.7-.7.7h-4.5l-2.3-2.3z"/><path id="g1" d="M15.8 42.6v-8.1c0-2.2 1.7-3.9 3.9-3.9h1.9c2.1 0 3.9 1.7 3.9 3.9v1.7h-2.9v-1.8c0-.6-.5-1.2-1.2-1.2h-1.5c-.6 0-1.2.5-1.2 1.2v6.7c0 .7.5 1.2 1.2 1.2h1.5c.6 0 1.2-.5 1.2-1.2v-.8L21.2 39v-1.2h4.3v7h-1.4l-.7-.7-.7.7h-4.5l-2.4-2.2z"/></g></symbol><symbol id="icon-logo" viewBox="0 0 150.5 119.5"><path id="text" d="M60 93.6v-9.4c0-2.5 2-4.5 4.5-4.5h2.2c2.5 0 4.5 2 4.5 4.5v1.9h-3.4V84c0-.7-.6-1.4-1.4-1.4h-1.8c-.7 0-1.4.6-1.4 1.4v7.8c0 .8.6 1.4 1.4 1.4h1.8c.7 0 1.4-.6 1.4-1.4V91l-1.6-1.5v-1.4h5v8.2h-1.7l-.8-.8-.7.8h-5.3L60 93.6zm19.8-1.5h3.4v-8.5l.7-.7h2.8v-3.1H76.3v3.1h2.8l.7.7v8.5zM76 96.2h11.1v-3.1H76v3.1zm16 0h3.4V82.9h2.9c.7 0 1.4.6 1.4 1.4v2l-.9.9h-2.3v2.7h.2c1.7 0 3.1 1.4 3.1 3.1v3.2h3.4v-5.3l-1.9-2 1.9-2v-2.6c0-2.5-2-4.5-4.5-4.5H92v16.4zm20.6 0h7.1v-3.4h-7.1v3.4zm-4.6 0h3.5V79.9H108v16.3zm16.8-10.7c.3 1.9 1.9 3.4 3.9 3.4h7.2c-.3-1.9-1.9-3.4-3.9-3.4h-7.2m-.1-.8h3.4v-1.1c0-.8.6-1.4 1.4-1.4h1.4c.7 0 1.4.6 1.4 1.4v.3h3.4v-2l-2.7-2.7h-5.5l-2.7 2.7v2.8zm2.3 10.8h6.4L136 93v-3.3h-3.4v1.4c0 .8-.6 1.4-1.4 1.4h-2.1c-.8 0-1.4-.6-1.4-1.4v-.3h-3.4v2l2.7 2.7zM63.8 119h5.3l.8-.8.8.8h1.7v-8.2h-5v1.4l1.6 1.5v.9c0 .8-.6 1.4-1.4 1.4h-1.8c-.7 0-1.4-.6-1.4-1.4v-7.8c0-.7.6-1.4 1.4-1.4h1.8c.7 0 1.4.6 1.4 1.4v2.1h3.4V107c0-2.5-2-4.5-4.5-4.5h-2.2c-2.5 0-4.5 2-4.5 4.5v9.4l2.6 2.6zm13.2-.2h3.4v-4.1c0-1.1.9-2.1 2.1-2.1h1.4V110h-2.4l-1 1v-3.5c0-1.1.9-2.1 2.1-2.1h.3c1.1 0 2 .9 2 2.1v11.3h3.4v-11.7l-2.7-4.8h-5.8l-2.7 4.8v11.7zm16 0h3.4v-13.3h2.9c.7 0 1.4.6 1.4 1.4v2l-.9.9h-2.3v2.7h.2c1.7 0 3.1 1.4 3.1 3.1v3.2h3.4v-5.3l-1.9-2 1.9-2V107c0-2.5-2-4.5-4.5-4.5H93v16.3zm15.8 0h3.4v-4.1c0-1.1.9-2.1 2.1-2.1h1.4V110h-2.4l-1 1v-3.5c0-1.1.9-2.1 2.1-2.1h.3c1.1 0 2 .9 2 2.1v11.3h3.4v-11.7l-2.7-4.8h-5.8l-2.7 4.8v11.7zm18.4.2h5.3l.8-.8.8.8h1.7v-8.2h-5v1.4l1.6 1.5v.9c0 .8-.6 1.4-1.4 1.4h-1.8c-.7 0-1.4-.6-1.4-1.4v-7.8c0-.7.6-1.4 1.4-1.4h1.8c.7 0 1.4.6 1.4 1.4v2.1h3.4V107c0-2.5-2-4.5-4.5-4.5h-2.2c-2.5 0-4.5 2-4.5 4.5v9.4l2.6 2.6zm16.7-9.2h5v3.1h-5v-3.1zm6.5-6.6v3.1h-7.5v10.2h7.6v3.1h-11v-16.3h10.9z"/><g id="mark"><path id="frame" d="M44.5 21.8l-1 1.5L30 3 2 45l13.5 20.2-1 1.5L0 45 30 0l14.5 21.8zM60 45L45.5 23.3l-1 1.5L58 45 30 87 16.5 66.8l-1 1.5L30 90l30-45z"/><path id="slash" d="M37.9 30.9L21.2 59.1h1.9l16.8-28.2z"/><path id="g2" d="M34.4 56.7v-8.1c0-2.2 1.7-3.9 3.9-3.9h1.9c2.1 0 3.9 1.7 3.9 3.9v1.7h-2.9v-1.8c0-.6-.5-1.2-1.2-1.2h-1.5c-.6 0-1.2.5-1.2 1.2v6.7c0 .7.5 1.2 1.2 1.2H40c.6 0 1.2-.5 1.2-1.2v-.8l-1.4-1.3V52H44v7h-1.4l-.7-.7-.7.7h-4.5l-2.3-2.3z"/><path id="g1" d="M15.8 42.6v-8.1c0-2.2 1.7-3.9 3.9-3.9h1.9c2.1 0 3.9 1.7 3.9 3.9v1.7h-2.9v-1.8c0-.6-.5-1.2-1.2-1.2h-1.5c-.6 0-1.2.5-1.2 1.2v6.7c0 .7.5 1.2 1.2 1.2h1.5c.6 0 1.2-.5 1.2-1.2v-.8L21.2 39v-1.2h4.3v7h-1.4l-.7-.7-.7.7h-4.5l-2.4-2.2z"/></g></symbol><symbol id="icon-twitter" viewBox="0 0 29.9 30"><path id="frame" d="M28.9 16c-.5 7.3-6.6 13-14 13S1.5 23.3 1 16H0c.5 7.8 7 14 15 14 7.9 0 14.4-6.2 15-14h-1.1zM15 0C7 0 .5 6.2 0 14h1C1.5 6.7 7.6 1 15 1s13.4 5.7 14 13h1c-.6-7.8-7.1-14-15-14"/><path id="icon" d="M23.1 11c-.5.2-1.1.4-1.7.5.6-.4 1.1-1 1.3-1.7-.6.3-1.2.6-1.9.7-.6-.6-1.3-1-2.2-1-1.7 0-3 1.4-3 3 0 .2 0 .5.1.7-2.5-.1-4.8-1.3-6.2-3.2-.3.4-.4 1-.4 1.5 0 1.1.5 2 1.3 2.5-.5 0-1-.2-1.4-.4 0 1.5 1 2.7 2.4 3-.3.1-.5.1-.8.1-.2 0-.4 0-.6-.1.4 1.2 1.5 2.1 2.8 2.1-1 .8-2.3 1.3-3.8 1.3h-.7c1.3.9 2.9 1.4 4.6 1.4 5.6 0 8.6-4.6 8.6-8.6v-.4c.7-.2 1.2-.7 1.6-1.4"/></symbol></svg>