<?xml version="1.0" encoding="utf-8"?>
<!-- Generator: Adobe Illustrator 19.1.0, SVG Export Plug-In . SVG Version: 6.00 Build 0)  -->
<svg version="1.1" id="Layer_1" xmlns="http://www.w3.org/2000/svg" xmlns:xlink="http://www.w3.org/1999/xlink" x="0px" y="0px"
	 viewBox="-292.4 382.9 89.6 30" style="enable-background:new -292.4 382.9 89.6 30;" xml:space="preserve">
<style type="text/css">
	.st0{fill:#FF4A45;}
	.st1{clip-path:url(#SVGID_2_);fill:#FF4A45;}
	.st2{clip-path:url(#SVGID_4_);fill:#FF4A45;}
	.st3{clip-path:url(#SVGID_6_);fill:#FF4A45;}
</style>
<g id="close">
	<polygon class="st0" points="-276.7,397.9 -271.1,403.5 -271.8,404.2 -277.4,398.6 -283.1,404.2 -283.8,403.5 -278.1,397.9 
		-283.8,392.2 -283.1,391.5 -277.4,397.2 -271.8,391.5 -271.1,392.2 	"/>
	<g>
		<defs>
			<rect id="SVGID_1_" x="-292.4" y="382.9" width="29.9" height="30"/>
		</defs>
		<clipPath id="SVGID_2_">
			<use xlink:href="#SVGID_1_"  style="overflow:visible;"/>
		</clipPath>
		<path class="st1" d="M-263.5,398.9c-0.5,7.3-6.6,13-14,13s-13.4-5.7-14-13h-1c0.5,7.8,7,14,15,14c7.9,0,14.5-6.2,15-14H-263.5z
			 M-277.4,382.9c-7.9,0-14.4,6.2-15,14h1c0.5-7.3,6.6-13,14-13s13.5,5.7,14,13h1C-263,389-269.5,382.9-277.4,382.9"/>
	</g>
</g>
<g id="prev">
	<g>
		<defs>
			<rect id="SVGID_3_" x="-262.5" y="382.9" width="29.9" height="29.9"/>
		</defs>
		<clipPath id="SVGID_4_">
			<use xlink:href="#SVGID_3_"  style="overflow:visible;"/>
		</clipPath>
		<path class="st2" d="M-233.6,398.9c-0.5,7.2-6.6,13-13.9,13c-7.4,0-13.4-5.7-13.9-13h-1c0.5,7.8,7,14,14.9,14
			c7.9,0,14.4-6.2,14.9-14H-233.6z M-247.5,382.9c-7.9,0-14.4,6.2-14.9,14h1c0.5-7.2,6.6-13,13.9-13c7.4,0,13.4,5.7,13.9,13h1
			C-233.1,389.1-239.6,382.9-247.5,382.9"/>
	</g>
	<polygon class="st0" points="-251.5,397.9 -245.5,403.9 -245.5,391.9 	"/>
</g>
<g id="next">
	<g>
		<defs>
			<rect id="SVGID_5_" x="-232.6" y="382.9" width="29.9" height="29.9"/>
		</defs>
		<clipPath id="SVGID_6_">
			<use xlink:href="#SVGID_5_"  style="overflow:visible;"/>
		</clipPath>
		<path class="st3" d="M-231.6,396.9c0.5-7.2,6.6-13,13.9-13c7.4,0,13.4,5.7,13.9,13h1c-0.5-7.8-7-14-14.9-14
			c-7.9,0-14.4,6.2-14.9,14H-231.6z M-217.7,412.9c7.9,0,14.4-6.2,14.9-14h-1c-0.5,7.2-6.6,13-13.9,13c-7.4,0-13.4-5.7-13.9-13h-1
			C-232.1,406.7-225.6,412.9-217.7,412.9"/>
	</g>
	<polygon class="st0" points="-213.7,397.9 -219.7,391.9 -219.7,403.9 	"/>
</g>
</svg>
