<svg id="Layer_1" xmlns="http://www.w3.org/2000/svg" viewBox="0 0 86.6 54"><style>.st0{fill:#000}</style><g id="logo-mark-footer"><path class="st0" d="M18 0L0 27l8.7 13 .6-.9L1.2 27 18 1.8 26.1 14l.6-.9z"/><path class="st0" d="M26.7 14.9L34.8 27 18 52.2 9.9 40l-.6 1L18 54l18-27-8.7-13z"/><path class="st0" d="M22.8 18.5l-10.1 17h1.2l10-17z"/><path class="st0" d="M20.6 34v-4.8c0-1.3 1-2.3 2.3-2.3h1.2c1.3 0 2.3 1 2.3 2.3v1h-1.8v-1.1c0-.4-.3-.7-.7-.7H23c-.4 0-.7.3-.7.7v4c0 .4.3.7.7.7h1c.4 0 .7-.3.7-.7v-.5l-.8-.8v-.7h2.6v4.2h-.9l-.4-.3-.4.4H22L20.6 34z"/><path class="st0" d="M9.5 25.5v-4.8c0-1.3 1-2.3 2.3-2.3H13c1.3 0 2.3 1 2.3 2.3v1h-1.8v-1.1c0-.4-.3-.7-.7-.7h-.9c-.4 0-.7.3-.7.7v4c0 .4.3.7.7.7h.9c.4 0 .7-.3.7-.7v-.5l-.8-.8v-.7h2.6v4.2h-.9l-.4-.3-.4.4h-2.7l-1.4-1.4z"/></g><path id="logo-text-footer" class="st0" d="M48 24.3v-4c0-1.1.9-1.9 1.9-1.9h1c1.1 0 1.9.9 1.9 1.9v.8h-1.5v-.9c0-.3-.3-.6-.6-.6H50c-.3 0-.6.3-.6.6v3.3c0 .3.3.6.6.6h.8c.3 0 .6-.3.6-.6v-.4l-.7-.6V22h2.1v3.5h-.7l-.3-.3-.3.3h-2.3L48 24.3zm8.4-.6h1.5V20l.3-.3h1.2v-1.3H55v1.3h1.2l.3.3v3.7zm-1.6 1.7h4.7v-1.3h-4.7v1.3zm6.8 0H63v-5.7h1.2c.3 0 .6.3.6.6v.8l-.4.4h-1v1.2h.1c.7 0 1.3.6 1.3 1.3v1.4h1.4v-2.2l-.8-.8.8-.8v-1.1c0-1.1-.9-1.9-1.9-1.9h-2.8v6.8zm8.8 0h3V24h-3v1.4zm-1.9 0H70v-7h-1.5v7zm6.7-4.2c.1.8.8 1.5 1.7 1.5H80c-.1-.8-.8-1.5-1.7-1.5h-3.1m0-.4h1.5v-.5c0-.3.3-.6.6-.6h.6c.3 0 .6.3.6.6v.1H80v-.9l-1.2-1.2h-2.4l-1.2 1.2v1.3zm.9 4.6h2.7l1.1-1.1v-1.4h-1.5v.6c0 .3-.3.6-.6.6H77c-.3 0-.6-.3-.6-.6v-.1H75v.9l1.1 1.1zm-26.9 10h2.3l.3-.3.3.3h.7v-3.5h-2.1v.6l.7.6v.4c0 .3-.3.6-.6.6H50c-.3 0-.6-.3-.6-.6v-3.3c0-.3.3-.6.6-.6h.8c.3 0 .6.3.6.6v.9h1.5v-.8c0-1.1-.9-1.9-1.9-1.9h-1c-1.1 0-1.9.9-1.9 1.9v4l1.1 1.1zm5.6 0h1.5v-1.7c0-.5.4-.9.9-.9h.6v-1.2h-1l-.5.4v-1.5c0-.5.4-.9.9-.9h.1c.5 0 .9.4.9.9v4.8h1.5v-5l-1.2-2H56l-1.2 2v5.1zm6.8 0H63v-5.7h1.2c.3 0 .6.3.6.6v.8l-.4.4h-1v1.2h.1c.7 0 1.3.6 1.3 1.3v1.4h1.4v-2.2l-.8-.8.8-.8v-1.1c0-1.1-.9-1.9-1.9-1.9h-2.8v6.8zm6.7 0h1.5v-1.7c0-.5.4-.9.9-.9h.6v-1.2h-1l-.5.4v-1.5c0-.5.4-.9.9-.9h.2c.5 0 .9.4.9.9v4.8h1.5v-5l-1.2-2h-2.5l-1.2 2v5.1zm7.9 0h2.3l.3-.3.3.3h.7v-3.5h-2.1v.6l.7.6v.4c0 .3-.3.6-.6.6H77c-.3 0-.6-.3-.6-.6v-3.3c0-.3.3-.6.6-.6h.8c.3 0 .6.3.6.6v.9h1.5v-.8c0-1.1-.9-1.9-1.9-1.9h-1c-1.1 0-1.9.9-1.9 1.9v4l1.1 1.1zm7.6-4.2h2.1v1.3h-2.1v-1.3zm2.7-2.8v1.3h-3.2v4.4h3.2v1.3h-4.7v-7h4.7z"/></svg>