<svg id="Layer_1" xmlns="http://www.w3.org/2000/svg" viewBox="0 0 29.9 30"><path id="frame" d="M28.9 16c-.5 7.3-6.6 13-14 13S1.5 23.3 1 16H0c.5 7.8 7 14 15 14 7.9 0 14.4-6.2 15-14h-1.1zM15 0C7 0 .5 6.2 0 14h1C1.5 6.7 7.6 1 15 1s13.4 5.7 14 13h1c-.6-7.8-7.1-14-15-14"/><path id="icon" d="M15 8h-2.9c-.7 0-1.3.2-1.7.3-.5.2-.9.5-1.3.9s-.6.8-.8 1.2c-.2.4-.3 1-.3 1.7v5.8c0 .7.2 1.3.3 1.7.2.5.4.9.8 1.2.4.4.8.6 1.2.8.4.2 1 .3 1.7.3h5.8c.7 0 1.3-.2 1.7-.3.5-.2.9-.4 1.2-.8s.6-.8.8-1.2c.2-.4.3-1 .3-1.7v-5.8c0-.7-.2-1.3-.3-1.7-.2-.5-.4-.9-.8-1.2s-.7-.7-1.2-.8c-.4-.2-1-.3-1.7-.3-.7-.1-.9-.1-2.8-.1m0 1.3h2.8c.7 0 1.1.1 1.3.2.3.1.6.3.8.5.2.2.4.5.5.8.1.2.2.6.2 1.3v5.6c0 .7-.1 1.1-.2 1.3-.1.3-.3.6-.5.8-.2.2-.5.4-.8.5-.2.1-.6.2-1.3.2h-5.6c-.7 0-1.1-.1-1.3-.2-.3-.1-.6-.3-.8-.5-.2-.2-.4-.5-.5-.8-.1-.2-.2-.6-.2-1.3v-5.6c0-.7.1-1.1.2-1.3.1-.3.3-.6.5-.8.2-.2.5-.4.8-.5.2-.1.6-.2 1.3-.2H15m0 8c-1.3 0-2.3-1-2.3-2.3 0-1.3 1-2.3 2.3-2.3 1.3 0 2.3 1 2.3 2.3 0 1.3-1.1 2.3-2.3 2.3m0-5.9c-2 0-3.6 1.6-3.6 3.6s1.6 3.6 3.6 3.6 3.6-1.6 3.6-3.6-1.7-3.6-3.6-3.6m4.5-.1c0 .5-.4.8-.8.8-.5 0-.8-.4-.8-.8 0-.5.4-.8.8-.8.5-.1.8.3.8.8"/></svg>