<svg viewBox="0 0 30 30" xmlns="http://www.w3.org/2000/svg"><path fill-rule="evenodd" clip-rule="evenodd" d="M28.995 16C28.482 23.265 22.412 29 15 29 7.588 29 1.518 23.265 1.005 16H0c.516 7.818 7.034 14 15 14s14.484-6.182 15-14h-1.005zm-27.99-2C1.518 6.735 7.588 1 15 1c7.412 0 13.482 5.735 13.995 13H30c-.516-7.818-7.034-14-15-14S.516 6.182 0 14h1.005z"/><path d="M21.706 11.565a1.784 1.784 0 0 0-1.241-1.267C19.375 10 15 10 15 10s-4.375 0-5.473.298a1.77 1.77 0 0 0-1.24 1.267C8 12.677 8 15 8 15s0 2.323.294 3.436a1.79 1.79 0 0 0 1.241 1.266C10.625 20 15 20 15 20s4.375 0 5.473-.298a1.77 1.77 0 0 0 1.24-1.267C22 17.324 22 15 22 15s0-2.323-.294-3.435zm-8.138 5.548v-4.226L17.228 15l-3.66 2.113z"/></svg>