<svg id="Layer_1" xmlns="http://www.w3.org/2000/svg" viewBox="0 0 29.9 30"><path id="frame" d="M28.9 16c-.5 7.3-6.6 13-14 13S1.5 23.3 1 16H0c.5 7.8 7 14 15 14 7.9 0 14.4-6.2 15-14h-1.1zM15 0C7 0 .5 6.2 0 14h1C1.5 6.7 7.6 1 15 1s13.4 5.7 14 13h1c-.6-7.8-7.1-14-15-14"/><path id="icon" d="M23.1 11c-.5.2-1.1.4-1.7.5.6-.4 1.1-1 1.3-1.7-.6.3-1.2.6-1.9.7-.6-.6-1.3-1-2.2-1-1.7 0-3 1.4-3 3 0 .2 0 .5.1.7-2.5-.1-4.8-1.3-6.2-3.2-.3.4-.4 1-.4 1.5 0 1.1.5 2 1.3 2.5-.5 0-1-.2-1.4-.4 0 1.5 1 2.7 2.4 3-.3.1-.5.1-.8.1-.2 0-.4 0-.6-.1.4 1.2 1.5 2.1 2.8 2.1-1 .8-2.3 1.3-3.8 1.3h-.7c1.3.9 2.9 1.4 4.6 1.4 5.6 0 8.6-4.6 8.6-8.6v-.4c.7-.2 1.2-.7 1.6-1.4"/></svg>